<svg width="85" height="85" viewBox="0 0 85 85" fill="none" xmlns="http://www.w3.org/2000/svg">
<circle cx="42.5529" cy="42.4756" r="42.0163" fill="#E4E4E4"/>
<path d="M58.9762 22.6174C57.0864 22.6174 55.5401 24.2078 55.5401 26.1517C55.5401 26.8144 55.7119 27.4329 56.0126 27.963L53.6073 30.437C52.8771 29.7743 52.104 29.1116 51.2879 28.5815H51.245C49.5269 27.477 47.68 26.7702 45.7043 26.4167C44.8023 26.24 43.9433 26.1517 43.0842 26.1517C40.593 26.1517 38.2737 26.726 36.0831 27.8746C34.7946 28.5373 33.6349 29.4209 32.6041 30.3928L30.1988 27.9188C30.4995 27.3887 30.6713 26.7702 30.6713 26.1075C30.6713 24.1636 29.125 22.5732 27.2352 22.5732C25.3453 22.5732 23.7991 24.1636 23.7991 26.1075C23.7991 28.0514 25.3453 29.6418 27.2352 29.6418C27.8794 29.6418 28.4808 29.4651 28.9962 29.1558L31.4444 31.674C31.2726 31.8949 31.0578 32.1158 30.929 32.3367L30.886 32.3809C29.6834 34.0155 28.7814 35.8268 28.266 37.8148V37.859C27.7935 39.3169 27.6217 40.6422 27.6217 42.056C27.6217 42.5861 27.6647 43.1604 27.7076 43.6906C27.9224 45.7228 28.4808 47.7108 29.4257 49.5221C29.4257 49.5221 29.4257 49.5663 29.4686 49.5663C30.027 50.6266 30.6713 51.5985 31.4444 52.4821C32.2175 53.3657 33.0766 54.2051 33.9785 54.9119C34.6228 55.3979 35.31 55.8397 35.9972 56.1931H29.7693V54.8677C29.7693 53.1448 28.4378 51.7752 26.7627 51.7752C25.0876 51.7752 23.7561 53.1448 23.7561 54.8677C23.7561 56.5907 25.0876 57.9602 26.7627 57.9602H28.0512V61.4945C28.0512 61.9805 28.4378 62.3781 28.9103 62.3781C29.3827 62.3781 29.7693 61.9805 29.7693 61.4945V57.9602H43.0842C45.017 57.9602 46.9498 57.5626 48.7538 56.8558C50.9014 55.9722 52.8342 54.6027 54.3804 52.8797C57.0434 49.9197 58.5467 46.0762 58.5467 42.056C58.5467 39.0518 57.7306 36.136 56.1844 33.5737C55.7978 32.911 55.3254 32.2925 54.8099 31.7182L57.2582 29.2442C57.7736 29.5534 58.3749 29.7301 59.0192 29.7301C60.909 29.7301 62.4553 28.1397 62.4553 26.1959C62.4123 24.2078 60.8661 22.6174 58.9762 22.6174ZM27.1922 27.9188C26.2473 27.9188 25.4742 27.1236 25.4742 26.1517C25.4742 25.1797 26.2473 24.3845 27.1922 24.3845C28.1371 24.3845 28.9103 25.1797 28.9103 26.1517C28.9103 27.1236 28.1371 27.9188 27.1922 27.9188ZM28.0512 56.1931H26.7627C26.0325 56.1931 25.4742 55.5746 25.4742 54.8677C25.4742 54.1167 26.0325 53.5424 26.7627 53.5424C27.4929 53.5424 28.0512 54.1167 28.0512 54.8677V56.1931ZM43.0842 27.9188C43.6426 27.9188 44.201 27.963 44.8023 28.0072C44.8023 28.2722 44.8023 28.5373 44.8023 28.8024C44.8023 29.8627 44.6734 30.923 44.4587 31.9391C42.6547 30.5695 40.8078 29.4651 38.7891 28.6257C40.1635 28.1397 41.5809 27.9188 43.0842 27.9188ZM36.5127 29.686C39.2186 30.6137 41.6668 31.9832 43.9003 33.8387C43.4708 34.9874 42.9554 36.0477 42.2681 37.0196C39.6481 34.634 36.5127 33.0435 33.1195 32.3367C34.0644 31.2764 35.2671 30.3486 36.5127 29.686ZM31.8739 33.8829C35.353 34.4572 38.5314 35.9593 41.1944 38.3008C40.4212 39.1843 39.5193 39.9796 38.5314 40.5981C36.1261 38.6542 33.2054 37.4614 30.1559 37.1963C30.5854 36.0918 31.1437 34.9874 31.8739 33.8829ZM29.3398 42.8512C29.3398 42.5861 29.3398 42.321 29.3398 42.056C29.3398 41.0398 29.4686 39.9796 29.6834 39.0076C32.2605 39.1402 34.7946 40.0679 36.8992 41.6142C34.5798 42.7186 32.0028 43.1604 29.3398 42.8512ZM31.0578 48.241C30.929 48.241 30.8431 48.241 30.7142 48.241C30.1559 47.0923 29.7693 45.8995 29.5545 44.6183C30.07 44.7067 30.5424 44.7067 31.0578 44.7067C33.8067 44.7067 36.5127 43.9556 38.9179 42.4977C40.5071 41.5258 41.9245 40.2888 43.0842 38.8309C44.2869 37.3288 45.1888 35.6059 45.7472 33.7504C46.2626 32.16 46.5203 30.4812 46.5203 28.8024C46.5203 28.6699 46.5203 28.4931 46.5203 28.3606C47.723 28.6699 48.8827 29.1558 49.9135 29.7743C49.7846 32.425 49.1404 34.9432 48.0666 37.2847C47.2935 38.9193 46.3056 40.4655 45.1029 41.7909C43.9433 43.0721 42.6547 44.1765 41.2803 45.1485C38.2307 47.1807 34.7087 48.241 31.0578 48.241ZM42.6547 53.1006C42.6547 54.1167 42.5259 55.1328 42.3111 56.1489C40.3783 56.0606 38.4884 55.5304 36.8133 54.6468C38.832 54.1609 40.7648 53.454 42.6547 52.4821C42.6547 52.703 42.6547 52.8797 42.6547 53.1006ZM47.68 55.3537C46.5203 55.7955 45.3177 56.0606 44.0721 56.1489C44.2869 55.1328 44.3728 54.1167 44.3728 53.1006C44.3728 52.5705 44.3298 52.0403 44.2869 51.5543C45.4036 50.8917 46.4344 50.1406 47.4223 49.3012C47.68 50.5824 47.8089 51.8636 47.8089 53.1448C47.8089 53.8958 47.7659 54.6468 47.68 55.3537ZM47.3794 47.004C46.0479 48.2851 44.5446 49.3896 42.9554 50.3173C40.3783 51.8194 37.6294 52.7913 34.7087 53.2773C33.549 52.3496 32.5611 51.2451 31.7451 50.0081C35.4818 49.8756 39.0897 48.7269 42.2252 46.6505C43.7714 45.6344 45.1888 44.3974 46.3915 43.0279C47.68 41.57 48.7968 39.8912 49.6128 38.1241C50.6866 35.871 51.3309 33.4853 51.5886 30.9671C52.7483 31.8949 53.7362 32.9994 54.5522 34.2805C53.908 37.2405 52.7483 40.0237 51.1161 42.5419C50.0423 44.1765 48.7538 45.6344 47.3794 47.004ZM49.484 54.5585C49.5269 54.0725 49.5269 53.5866 49.5269 53.1006C49.5269 51.3335 49.3122 49.6105 48.8827 47.9317C49.8705 46.9598 50.7725 45.9437 51.5456 44.8392C52.3188 47.0923 52.7912 49.478 52.8771 51.9078C51.8893 53.0122 50.7296 53.8958 49.484 54.5585ZM55.7119 36.5336C56.3992 38.3008 56.8287 40.1121 56.8287 42.056C56.8287 44.8834 56.0126 47.6225 54.4663 49.9197C54.2086 47.5783 53.6073 45.281 52.7483 43.0721C54.0368 41.084 55.0247 38.8751 55.7119 36.5336ZM58.9762 27.9188C58.0313 27.9188 57.2582 27.1236 57.2582 26.1517C57.2582 25.1797 58.0313 24.3845 58.9762 24.3845C59.9212 24.3845 60.6943 25.1797 60.6943 26.1517C60.6943 27.1236 59.9212 27.9188 58.9762 27.9188Z" fill="black"/>
</svg>
