<svg width="85" height="85" viewBox="0 0 85 85" fill="none" xmlns="http://www.w3.org/2000/svg">
<circle cx="42.0812" cy="42.3699" r="42.0163" fill="#E4E4E4"/>
<path d="M43.4942 52.6856C41.1588 50.8156 37.3721 50.8156 35.0368 52.6856C32.7039 54.5564 32.7039 57.5881 35.0368 59.4589C37.3714 61.3297 41.158 61.3297 43.4942 59.4589C45.8279 57.5881 45.8279 54.5564 43.4942 52.6856Z" fill="black"/>
<path d="M34.5191 49.9877C36.329 47.7394 35.7165 44.8992 33.1524 43.6457C30.5876 42.393 27.0431 43.1994 25.2332 45.4476C23.4258 47.6959 24.0367 50.5361 26.5999 51.7897C29.1655 53.044 32.7109 52.2368 34.5191 49.9877Z" fill="black"/>
<path d="M32.0645 39.2631C33.7968 37.3275 33.3781 34.7421 31.1283 33.4885C28.8792 32.2342 25.6528 32.7866 23.9197 34.7223C22.1866 36.658 22.606 39.2426 24.8551 40.4961C27.1042 41.7504 30.3322 41.198 32.0645 39.2631Z" fill="black"/>
<path d="M33.6598 32.3704C35.8107 33.6224 38.9374 33.146 40.642 31.3092C42.3474 29.4717 41.9873 26.9686 39.8372 25.7174C37.687 24.4655 34.5604 24.9411 32.8557 26.7778C31.1496 28.6154 31.5096 31.1185 33.6598 32.3704Z" fill="black"/>
<path d="M51.8186 29.1755C53.7337 28.1966 53.9466 26.2736 52.2935 24.8784C50.6419 23.4832 47.7463 23.1453 45.8304 24.1234C43.9137 25.1016 43.7016 27.0254 45.3547 28.4206C47.0079 29.8158 49.9035 30.1537 51.8186 29.1755Z" fill="black"/>
<path d="M58.8059 43.3632C57.0933 42.8599 55.6159 42.4247 55.2099 41.4173C54.9749 40.8332 55.0667 39.9754 55.4655 38.8683C59.712 34.8956 66.0651 28.4942 65.8862 25.893C65.815 24.8532 64.1579 23.3638 63.0713 23.3638L62.9859 23.367C61.8099 23.4477 60.0127 25.0035 58.0928 27.1101C57.9267 26.6314 57.7328 26.1621 57.4748 25.7165C55.4608 22.2464 51.0331 20.2561 45.3281 20.2561C40.8925 20.2561 35.9536 21.4788 31.0479 23.7919C24.751 26.7611 20.0479 32.9528 19.0666 39.567C18.3369 44.4783 19.209 51.906 27.501 59.4106C31.1776 62.7399 36.9673 64.5727 43.8007 64.5727H43.8031C49.2889 64.5727 54.8466 63.3516 59.0536 61.2252C63.7551 58.8471 66.3436 55.5582 66.3436 51.963C66.3436 45.5799 61.9864 44.2986 58.8059 43.3632ZM63.0713 24.5509C63.5707 24.5509 64.6754 25.5875 64.7015 25.9737C64.8527 28.1761 57.0071 35.9822 51.7627 40.637L50.8685 39.8591L50.2836 39.3486C54.1867 33.5258 60.861 24.7012 63.0713 24.5509ZM48.3527 41.6705L49.5572 40.2896L50.927 41.4845L49.7249 42.8647L48.3527 41.6705ZM58.3397 59.8118C54.3465 61.8314 49.0491 62.9899 43.8031 62.9899H43.8015C37.3598 62.9899 31.9484 61.302 28.563 58.237C20.7886 51.2025 19.9584 44.3279 20.6303 39.7989C21.5372 33.6943 25.8913 27.9735 31.7245 25.2235C36.4197 23.0093 41.1243 21.8388 45.3281 21.8388C50.3794 21.8388 54.4074 23.5854 56.1049 26.5111C56.4705 27.1402 56.7159 27.8129 56.8583 28.5172C53.3146 32.698 49.7154 38.0555 49.0277 39.0891L46.8301 41.6088C45.6763 41.5969 44.5209 42.101 44.1648 43.3189C42.8527 47.7941 39.9302 50.5694 39.9302 50.5694C39.9302 50.5694 47.3382 49.1054 48.7555 47.4419C49.5231 46.5414 49.8951 45.4651 49.8864 44.4838L52.1877 41.8454C52.4947 41.5755 52.9513 41.1696 53.514 40.6615C53.5108 41.1553 53.5789 41.6064 53.7403 42.0084C54.4328 43.7273 56.3392 44.2876 58.3579 44.8811C61.5052 45.807 64.7601 46.7637 64.7601 51.963C64.7609 54.9307 62.4794 57.7179 58.3397 59.8118Z" fill="black"/>
<path d="M60.1088 48.5926C57.7742 46.7226 53.9867 46.7226 51.6522 48.5926C49.3177 50.4626 49.3185 53.4951 51.6522 55.3659C53.986 57.2367 57.7734 57.2359 60.1088 55.3659C62.4441 53.4959 62.4433 50.4626 60.1088 48.5926ZM58.9589 54.444C57.2598 55.8059 54.5011 55.8059 52.8029 54.444C51.1038 53.082 51.1038 50.8749 52.8029 49.5137C54.5011 48.1518 57.2598 48.1518 58.9589 49.5137C60.658 50.8757 60.658 53.082 58.9589 54.444Z" fill="black"/>
</svg>
