<svg width="85" height="85" viewBox="0 0 85 85" fill="none" xmlns="http://www.w3.org/2000/svg">
<circle cx="42.0813" cy="42.3699" r="42.0163" fill="#E4E4E4"/>
<path d="M46.7983 23.504H36.6398C36.4474 23.504 36.2628 23.4276 36.1267 23.2915C35.9906 23.1554 35.9142 22.9709 35.9142 22.7784V21.3272C35.9142 20.7499 36.1435 20.1962 36.5518 19.788C36.96 19.3797 37.5137 19.1504 38.091 19.1504H45.3471C45.9244 19.1504 46.4781 19.3797 46.8864 19.788C47.2946 20.1962 47.5239 20.7499 47.5239 21.3272V22.7784C47.5239 22.9709 47.4475 23.1554 47.3114 23.2915C47.1753 23.4276 46.9908 23.504 46.7983 23.504ZM37.3654 22.0528H46.0727V21.3272C46.0727 21.1348 45.9963 20.9502 45.8602 20.8141C45.7241 20.6781 45.5396 20.6016 45.3471 20.6016H38.091C37.8986 20.6016 37.714 20.6781 37.5779 20.8141C37.4419 20.9502 37.3654 21.1348 37.3654 21.3272V22.0528Z" fill="black"/>
<path d="M62.0359 45.403V25.6809C62.0359 24.7187 61.6536 23.7959 60.9733 23.1155C60.2929 22.4351 59.3701 22.0529 58.4078 22.0529H25.0298C24.0676 22.0529 23.1448 22.4351 22.4644 23.1155C21.784 23.7959 21.4017 24.7187 21.4017 25.6809V45.403C20.9218 45.5771 20.5184 45.9144 20.262 46.3558C20.0055 46.7972 19.9124 47.3147 19.9988 47.8179C20.0853 48.321 20.3458 48.7778 20.7349 49.1083C21.124 49.4388 21.6169 49.6221 22.1274 49.626H31.9086L23.3174 64.501C23.2537 64.6113 23.2201 64.7365 23.2201 64.8638C23.2201 64.9912 23.2537 65.1163 23.3174 65.2266C23.3807 65.3363 23.4716 65.4275 23.5811 65.4911C23.6905 65.5548 23.8147 65.5887 23.9414 65.5894H27.2937C27.4203 65.5887 27.5445 65.5548 27.654 65.4911C27.7635 65.4275 27.8544 65.3363 27.9177 65.2266L31.9086 58.3333H51.5581L55.5489 65.2266C55.6123 65.3363 55.7032 65.4275 55.8126 65.4911C55.9221 65.5548 56.0463 65.5887 56.173 65.5894H59.5253C59.6519 65.5887 59.7761 65.5548 59.8856 65.4911C59.9951 65.4275 60.086 65.3363 60.1493 65.2266C60.213 65.1163 60.2465 64.9912 60.2465 64.8638C60.2465 64.7365 60.213 64.6113 60.1493 64.501L51.5581 49.626H61.3103C61.8208 49.6221 62.3136 49.4388 62.7027 49.1083C63.0918 48.7778 63.3523 48.321 63.4388 47.8179C63.5252 47.3147 63.4321 46.7972 63.1757 46.3558C62.9192 45.9144 62.5158 45.5771 62.0359 45.403ZM22.853 25.6809C22.853 25.1036 23.0823 24.5499 23.4905 24.1417C23.8988 23.7334 24.4525 23.5041 25.0298 23.5041H58.4078C58.9852 23.5041 59.5389 23.7334 59.9471 24.1417C60.3553 24.5499 60.5847 25.1036 60.5847 25.6809V39.9029L55.2877 34.5914C54.6502 33.9835 53.8031 33.6444 52.9222 33.6444C52.0413 33.6444 51.1943 33.9835 50.5567 34.5914L45.1002 40.048L36.0591 31.0069C35.5175 30.49 34.7977 30.2017 34.0491 30.2017C33.3005 30.2017 32.5807 30.49 32.0392 31.0069L22.853 40.1931V25.6809ZM60.5847 41.9491V45.2724H50.3245L47.2915 42.2393L46.8997 41.8475L46.1305 41.0783L51.5871 35.6218C51.9439 35.2729 52.4232 35.0775 52.9222 35.0775C53.4213 35.0775 53.9005 35.2729 54.2574 35.6218L60.5847 41.9491ZM22.853 42.2538L33.0695 32.0227C33.3337 31.7713 33.6844 31.631 34.0491 31.631C34.4138 31.631 34.7645 31.7713 35.0287 32.0227L44.0843 41.0783L45.1002 42.0942L48.2783 45.2724H22.853V42.2538ZM58.2627 64.1382H56.5938L52.603 57.2449C52.5396 57.1353 52.4487 57.0441 52.3393 56.9804C52.2298 56.9168 52.1056 56.8829 51.9789 56.8821H31.4877C31.3611 56.8829 31.2369 56.9168 31.1274 56.9804C31.0179 57.0441 30.927 57.1353 30.8637 57.2449L26.8728 64.1382H25.2039L33.5775 49.626H35.2609L32.5326 54.3425C32.4689 54.4528 32.4354 54.5779 32.4354 54.7053C32.4354 54.8327 32.4689 54.9578 32.5326 55.0681C32.5959 55.1778 32.6868 55.269 32.7963 55.3326C32.9058 55.3963 33.03 55.4301 33.1566 55.4309H50.31C50.4367 55.4301 50.5609 55.3963 50.6704 55.3326C50.7798 55.269 50.8707 55.1778 50.9341 55.0681C50.9977 54.9578 51.0313 54.8327 51.0313 54.7053C51.0313 54.5779 50.9977 54.4528 50.9341 54.3425L48.2058 49.626H49.8892L58.2627 64.1382ZM36.9298 49.626H46.5369L49.0475 53.9797H34.4192L36.9298 49.626ZM61.3103 48.1748H22.1274C21.9349 48.1748 21.7503 48.0984 21.6143 47.9623C21.4782 47.8262 21.4017 47.6416 21.4017 47.4492C21.4017 47.2568 21.4782 47.0722 21.6143 46.9361C21.7503 46.8 21.9349 46.7236 22.1274 46.7236H61.3103C61.5027 46.7236 61.6873 46.8 61.8234 46.9361C61.9594 47.0722 62.0359 47.2568 62.0359 47.4492C62.0359 47.6416 61.9594 47.8262 61.8234 47.9623C61.6873 48.0984 61.5027 48.1748 61.3103 48.1748ZM45.3469 33.6626C46.0644 33.6626 46.7659 33.4498 47.3625 33.0512C47.9591 32.6525 48.4241 32.0859 48.6987 31.423C48.9733 30.76 49.0452 30.0305 48.9052 29.3268C48.7652 28.623 48.4197 27.9765 47.9123 27.4691C47.4049 26.9618 46.7584 26.6162 46.0547 26.4762C45.3509 26.3362 44.6214 26.4081 43.9585 26.6827C43.2955 26.9573 42.7289 27.4223 42.3303 28.0189C41.9316 28.6156 41.7188 29.317 41.7188 30.0346C41.7188 30.9968 42.1011 31.9196 42.7814 32.6C43.4618 33.2804 44.3846 33.6626 45.3469 33.6626ZM45.3469 27.8577C45.7774 27.8577 46.1983 27.9854 46.5562 28.2246C46.9142 28.4638 47.1932 28.8038 47.358 29.2015C47.5227 29.5993 47.5659 30.037 47.4819 30.4592C47.3979 30.8815 47.1905 31.2694 46.8861 31.5738C46.5817 31.8783 46.1938 32.0856 45.7715 32.1696C45.3493 32.2536 44.9116 32.2105 44.5138 32.0457C44.1161 31.8809 43.7761 31.6019 43.5369 31.2439C43.2977 30.886 43.17 30.4651 43.17 30.0346C43.17 29.4572 43.3994 28.9035 43.8076 28.4953C44.2158 28.0871 44.7695 27.8577 45.3469 27.8577Z" fill="black"/>
</svg>
