<svg width="85" height="85" viewBox="0 0 85 85" fill="none" xmlns="http://www.w3.org/2000/svg">
<circle cx="42.0813" cy="42.3699" r="42.0163" fill="#E4E4E4"/>
<path d="M42.3421 18.0447L41.563 18.0938H41.1249H41.0762L39.9563 18.2409L39.1773 18.388L39.3721 19.9083L40.1511 19.8102L41.2222 19.6631H41.6604L42.4394 19.6141L42.3421 18.0447ZM44.0461 18.0938L43.8514 19.6631L44.6304 19.7612L45.312 19.8593L46.091 20.0064L46.8214 20.2026L47.1622 18.6332L46.4319 18.4861L45.6042 18.2899H45.5555L44.8251 18.1918L44.0461 18.0938ZM37.4732 18.7803L36.7429 19.0746L35.477 19.6141L35.4283 19.6631L35.2336 19.7122L34.552 20.1045L35.2823 21.4777L35.9639 21.1344L36.11 21.0363L37.3272 20.5459L38.0575 20.2516L37.4732 18.7803ZM48.7689 19.1727L48.1846 20.644L48.9149 20.9382L49.061 21.0363L50.2295 21.6248L50.9598 21.9681L51.6415 20.5949L50.9598 20.2026L49.7913 19.6141H49.7426V19.565L49.4992 19.4669L48.7689 19.1727ZM33.0913 20.9382L32.4584 21.4287L31.8254 21.9191L31.7767 21.9681L31.2412 22.4585L30.6569 22.949L31.6794 24.126L32.2636 23.6356L32.7992 23.1451L33.4321 22.6547L34.0164 22.2133L33.0913 20.9382ZM42.6342 21.0363C34.9023 21.0363 28.612 27.3226 28.612 35.0625C28.612 39.2985 30.7302 42.1592 32.7018 45.1162C33.5168 46.3385 34.3351 47.59 34.9902 48.9906L34.4059 48.6473L33.6269 49.9715L34.2598 50.3638L34.3572 50.4619H34.4059H34.4546L35.7205 51.0994L35.8178 51.1485C36.2692 52.621 36.5482 54.2904 36.5482 56.2489V62.6245C36.5482 62.8326 36.6303 63.0321 36.7764 63.1793C36.9224 63.3264 37.1206 63.4091 37.3272 63.4091H47.9412C48.1478 63.4091 48.3459 63.3264 48.492 63.1793C48.6381 63.0321 48.7202 62.8326 48.7202 62.6245V56.298C48.7207 56.2816 48.7207 56.2653 48.7202 56.2489C48.7202 54.2975 48.9528 52.666 49.4018 51.1975L49.5966 51.0994L49.9861 50.9033L50.6677 50.56L50.1322 49.383C50.8179 47.8244 51.6295 46.4487 52.5179 45.1162C54.4895 42.1592 56.6564 39.2985 56.6564 35.0625C56.6564 27.3226 50.3661 21.0363 42.6342 21.0363ZM53.1021 21.5758L52.0797 22.7528L52.6639 23.2923L53.4429 23.9789L53.7351 24.3222L54.2706 24.8616L55.3905 23.7827L54.8549 23.2432L54.5141 22.8509L54.4654 22.8018L53.6864 22.1152L53.1021 21.5758ZM42.6342 22.6057C49.5303 22.6057 55.0983 28.1769 55.0983 35.0625C55.0983 38.7715 53.2533 41.2318 51.252 44.2335C50.1518 45.8835 49.0913 47.7277 48.3307 49.9715L48.2333 50.0205L48.282 50.1186C47.7624 51.6908 47.3964 53.4463 47.3082 55.4642H43.4132V46.8818C43.4147 46.7778 43.3956 46.6746 43.3571 46.5781C43.3186 46.4816 43.2614 46.3938 43.189 46.3197C43.1165 46.2457 43.0301 46.1869 42.9349 46.1467C42.8396 46.1066 42.7374 46.0859 42.6342 46.0859C42.5309 46.0859 42.4287 46.1066 42.3335 46.1467C42.2383 46.1869 42.1519 46.2457 42.0794 46.3197C42.0069 46.3938 41.9498 46.4816 41.9113 46.5781C41.8728 46.6746 41.8537 46.7778 41.8552 46.8818V55.4642H37.9601C37.874 53.493 37.5347 51.7612 37.0351 50.2167L37.1324 50.0695L36.9377 49.9715C36.1782 47.7359 35.1136 45.879 34.0164 44.2335C32.015 41.2318 30.17 38.7715 30.17 35.0625C30.17 28.1769 35.7381 22.6057 42.6342 22.6057ZM29.4884 24.2241L29.0015 24.8616L28.8555 25.0578L28.8068 25.1068L28.0764 26.1858L27.6382 26.8233L28.9528 27.7061L29.391 27.0686L30.0727 25.9896H30.1213L30.2187 25.8425L30.7056 25.2049L29.4884 24.2241ZM42.5368 25.0578C42.3102 25.0606 42.0787 25.0878 41.8552 25.1068V26.8233V34.1307L36.9864 39.035L35.5257 40.5062C35.6807 40.6908 35.7933 40.8718 35.9639 41.0457C35.9756 41.0605 35.9999 41.0809 36.0126 41.0947C36.0319 41.1142 36.0401 41.1265 36.0613 41.1438C38.1122 43.1736 40.9978 44.1706 43.8514 43.7921C46.7139 43.4125 49.2104 41.6903 50.6677 39.1821C50.6785 39.1672 50.7068 39.1978 50.7164 39.1821C50.7297 39.1589 50.752 39.1072 50.7651 39.084C52.3854 36.1872 52.3693 32.6496 50.7164 29.7659C49.0691 26.8921 46.0193 25.1045 42.7316 25.0578C42.6913 25.0515 42.6749 25.0577 42.6342 25.0578C42.5965 25.0581 42.5741 25.052 42.5368 25.0578ZM56.4616 25.1068L55.1957 25.9896L55.6339 26.6272L55.8773 27.0195L56.3642 27.9023L56.7537 28.5889L58.117 27.8532L57.7275 27.1666L57.2406 26.2348L57.1919 26.1858L56.8998 25.7444L56.4616 25.1068ZM40.2972 25.3521C37.5025 26.0818 35.1058 28.0774 33.9677 30.8448C32.8282 33.6158 33.1329 36.723 34.6006 39.2311L35.8665 37.956C34.7994 35.9664 34.5388 33.5966 35.4283 31.4333C36.3162 29.2743 38.1506 27.8152 40.2972 27.1666C40.3112 27.1639 40.2951 27.1318 40.2972 27.1176V25.3521ZM43.4132 26.8233C45.8718 27.0873 48.1002 28.3646 49.3531 30.5506C50.6068 32.7376 50.6006 35.3351 49.5966 37.6127L48.1359 36.73L43.4132 33.9836V26.8233ZM26.8592 28.4417L26.6158 29.1774L26.2263 30.3054V30.3544L26.1289 30.7468L25.9342 31.4824L27.4435 31.8747L27.6382 31.09L27.7356 30.7468L28.0764 29.6678L28.3686 28.9322L26.8592 28.4417ZM58.7499 29.4226L57.2893 29.9621L57.5327 30.6977L57.8736 32.0219V32.0709L58.0196 32.8556L59.529 32.6104L59.4316 31.8257V31.7766L59.3829 31.7276V31.6786L59.0421 30.3054V30.2563V30.2073L58.9934 30.1582L58.7499 29.4226ZM25.5933 33.1498L25.5447 33.9345L25.496 34.7682V34.8173V35.602V36.3867L27.054 36.3376V35.5529V34.8173L27.1027 34.0816L27.1514 33.297L25.5933 33.1498ZM58.2144 34.2778V35.0625V36.0924L58.1657 36.5828L58.0683 37.3185L59.6263 37.4656L59.7237 36.73L59.7724 36.2395V36.1905V36.1414V35.0625V34.2778H58.2144ZM42.7316 35.4548L48.8176 38.9859C47.5687 40.7172 45.7868 41.9402 43.6566 42.2227C41.526 42.5054 39.4654 41.7554 37.8141 40.4081L42.7316 35.4548ZM27.2487 37.7598L25.6907 38.0541L25.8368 38.8388L25.9342 39.133V39.1821L26.275 40.4081L26.4697 41.1438L27.9791 40.7514L27.7356 40.0158L27.4435 38.7897L27.3948 38.5445L27.2487 37.7598ZM57.8249 38.7407L57.6301 39.5254L57.5327 40.0158L57.1919 40.9476L56.8998 41.6833L58.3604 42.2227L58.6526 41.4871L58.9934 40.5553V40.5062V40.4572L59.1395 39.9177L59.3342 39.1821L57.8249 38.7407ZM28.5146 42.0266L27.1514 42.8112L27.5409 43.4978L28.0764 44.4787H28.1251V44.5277L28.3686 44.871L28.8068 45.5086L30.1213 44.6258L29.6345 43.9883L29.4397 43.645H29.391L28.9041 42.7132L28.5146 42.0266ZM56.3155 42.9093L55.8773 43.5959L55.147 44.7239H55.0983L55.0497 44.822L54.5628 45.4105L55.78 46.3914L56.2669 45.8028L56.3642 45.6557V45.6067H56.4129L57.1919 44.4787L57.6301 43.7921L56.3155 42.9093ZM30.9977 45.7538L29.8779 46.8327L30.4135 47.4212L30.803 47.8136L30.8517 47.8626L31.6307 48.5492L32.2149 49.0397L33.2374 47.8626L32.6531 47.3232L31.9228 46.7346L31.5333 46.3423L30.9977 45.7538ZM53.589 46.4894L53.0047 47.0289L52.4205 47.5684L51.8362 47.9607L51.2033 48.4021L52.1284 49.6772L52.7613 49.2358L53.3456 48.7944H53.3943V48.7454L54.0272 48.2059L54.6115 47.6665L53.589 46.4894ZM38.1062 57.0336H42.4881C42.5688 57.0465 42.6509 57.0465 42.7316 57.0336H47.1622V61.8398H38.1062V60.2704H45.7502V58.7011H38.1062V57.0336ZM38.7391 65.1256C37.6857 65.1099 37.6857 66.7101 38.7391 66.695H46.5292C47.5827 66.7107 47.5827 65.1106 46.5292 65.1256H38.7391Z" fill="black"/>
</svg>
