<svg width="108" height="47" viewBox="0 0 108 47" fill="none" xmlns="http://www.w3.org/2000/svg">
<path d="M26.6518 46C22.6175 46 20.4146 43.3397 19.4612 41.7532C18.394 40.022 17.1708 39.7874 16.1163 39.7874C15.2425 39.7874 14.2802 39.9781 13.2599 40.1779C12.3271 40.3604 11.361 40.5531 10.366 40.618L10.2522 40.6241L10.1421 40.6062C5.12543 39.7138 1.92593 37.8079 0.630009 34.9431C-1.26882 30.7413 1.71776 26.1643 1.84583 25.9726L22.0989 3.28593C25.1604 1.10604 27.8365 0 30.0495 0C34.7815 0 36.3046 4.93989 36.4495 7.55167C36.4511 7.61556 36.3657 11.3993 36.2803 15.8373C36.2066 19.6814 37.4888 20.8293 37.5009 20.8395C38.273 21.2822 38.8142 22.0176 38.9597 22.886C39.2611 24.6902 37.7792 26.4362 37.6089 26.6289L37.3628 26.9074L36.9839 26.9315C36.4005 27.2887 36.0226 29.9542 35.9167 34.8338C35.8993 35.6352 35.8835 36.2751 35.8482 36.6344C35.757 41.4532 34.0442 43.2788 32.7625 44.2264C30.5138 45.427 28.4964 46 26.6518 46ZM16.1168 38.0686C18.2665 38.0686 19.8207 38.964 21.0054 40.8848C21.7706 42.1575 23.5156 44.2811 26.6518 44.2811C28.1907 44.2811 29.9182 43.7792 31.786 42.7918C32.6608 42.1329 33.9831 40.6804 34.0632 36.5378C34.0996 36.1386 34.1122 35.5406 34.1275 34.797C34.2345 29.9946 34.488 25.9532 36.4137 25.3036C36.7763 24.8185 37.3191 23.895 37.1931 23.1559C37.1531 22.9213 37.0324 22.5691 36.4579 22.2308C36.1697 22.0197 34.4005 20.539 34.4911 15.8071C34.577 11.3625 34.6619 7.57876 34.6619 7.57876C34.6503 7.40038 34.2693 1.71836 30.0495 1.71836C28.245 1.71836 25.9567 2.69049 23.2447 4.61124L3.27983 26.9933C3.29195 26.9933 0.761235 30.9345 2.27429 34.2649C3.31145 36.5521 6.02926 38.109 10.356 38.895C11.1977 38.8312 12.0641 38.6594 12.902 38.4959C13.9645 38.2853 15.0617 38.0686 16.1168 38.0686ZM31.8244 23.8014C30.2835 23.8842 28.9159 23.8842 28.9159 23.8842L28.9143 11.0518C28.9143 11.0518 28.4858 7.59511 25.0608 9.98149L7.00213 30.5491C7.00213 30.5491 5.80422 32.2762 7.00213 32.6028C7.00213 32.6028 8.20003 33.51 9.2277 33.097C10.0836 32.3584 13.935 27.3388 23.7791 26.2389C23.6937 31.2074 23.8644 38.1979 23.8644 38.1979C23.8644 38.1979 26.6033 40.9952 29.2558 38.1979C29.2558 35.3336 29.1704 26.2149 29.1704 25.1186C29.3596 25.1605 30.0647 24.9351 31.9093 24.7102C31.9098 24.7102 33.3665 24.2936 31.8244 23.8014ZM24.207 23.8842C24.207 23.8842 20.0968 24.2139 18.4705 24.2906C16.8441 24.3693 18.042 23.5556 18.042 23.5556L24.2065 16.8912V23.8842H24.207Z" fill="black"/>
<path d="M50.2344 11.25C51.974 11.25 53.4583 11.5104 54.6875 12.0312C55.9167 12.5521 56.8542 13.3229 57.5 14.3438C58.1562 15.3646 58.4844 16.6198 58.4844 18.1094C58.4844 19.2552 58.276 20.2604 57.8594 21.125C57.4427 21.9896 56.849 22.7188 56.0781 23.3125C55.3177 23.8958 54.4167 24.349 53.375 24.6719L52.1562 25.2969H44.9531L44.9219 22.0625H50.2656C51.1927 22.0625 51.9635 21.901 52.5781 21.5781C53.2031 21.2552 53.6667 20.8125 53.9688 20.25C54.2812 19.6875 54.4375 19.0469 54.4375 18.3281C54.4375 17.1615 54.099 16.2344 53.4219 15.5469C52.7552 14.849 51.6927 14.5 50.2344 14.5H46.1875V34H42.1562V11.25H50.2344ZM49.7656 23.7969L54 23.7812L59.3906 33.7969V34H55.0781L49.7656 23.7969ZM71.0781 34H67.0781V11.25H71.0781V34ZM78.1719 14.5H60.0469V11.25H78.1719V14.5ZM84.9219 34H81.0469V17.0938H84.9219V34ZM80.7969 12.6719C80.7969 12.0781 80.9896 11.5885 81.375 11.2031C81.7604 10.8073 82.2969 10.6094 82.9844 10.6094C83.6719 10.6094 84.2135 10.8073 84.6094 11.2031C85.0052 11.5885 85.2031 12.0781 85.2031 12.6719C85.2031 13.2552 85.0052 13.7448 84.6094 14.1406C84.2135 14.526 83.6719 14.7188 82.9844 14.7188C82.2969 14.7188 81.7604 14.526 81.375 14.1406C80.9896 13.7448 80.7969 13.2552 80.7969 12.6719ZM106.797 26.5625C106.672 28.0521 106.25 29.3854 105.531 30.5625C104.823 31.7292 103.828 32.6458 102.547 33.3125C101.266 33.9792 99.6979 34.3125 97.8438 34.3125C95.9688 34.3125 94.3385 33.875 92.9531 33C91.5781 32.1146 90.5156 30.8646 89.7656 29.25C89.026 27.6354 88.6562 25.7292 88.6562 23.5312V21.7344C88.6562 19.526 89.0365 17.6198 89.7969 16.0156C90.5573 14.401 91.6354 13.151 93.0312 12.2656C94.4375 11.3802 96.0938 10.9375 98 10.9375C99.8229 10.9375 101.359 11.276 102.609 11.9531C103.87 12.6198 104.844 13.5469 105.531 14.7344C106.229 15.9115 106.651 17.2656 106.797 18.7969H102.781C102.625 17.349 102.193 16.224 101.484 15.4219C100.786 14.6198 99.625 14.2188 98 14.2188C96.8229 14.2188 95.8438 14.5104 95.0625 15.0938C94.2917 15.6667 93.7083 16.5104 93.3125 17.625C92.9167 18.7292 92.7188 20.0885 92.7188 21.7031V23.5312C92.7188 25.0729 92.8958 26.4062 93.25 27.5312C93.6042 28.6458 94.1562 29.5104 94.9062 30.125C95.6562 30.7292 96.6354 31.0312 97.8438 31.0312C98.9479 31.0312 99.8385 30.8594 100.516 30.5156C101.203 30.1719 101.724 29.6719 102.078 29.0156C102.432 28.349 102.661 27.5312 102.766 26.5625H106.797Z" fill="black"/>
</svg>
