<svg width="250" height="109" viewBox="0 0 250 109" fill="none" xmlns="http://www.w3.org/2000/svg">
<path d="M61.5042 107C52.1943 107 47.1106 100.812 44.9106 97.1215C42.4478 93.0948 39.625 92.5491 37.1914 92.5491C35.175 92.5491 32.9543 92.9925 30.5997 93.4574C28.4471 93.8818 26.2178 94.33 23.9217 94.481L23.659 94.4953L23.4048 94.4537C11.8279 92.3779 4.44446 87.9445 1.45387 81.2808C-2.92804 71.5069 3.96407 60.8604 4.2596 60.4146L50.9976 7.64337C58.0624 2.57276 64.2382 0 69.3449 0C80.265 0 83.7798 11.4906 84.1143 17.5658C84.1179 17.7144 83.9209 26.5158 83.7239 36.8389C83.5536 45.7805 86.5126 48.4508 86.5405 48.4746C88.3222 49.5041 89.5713 51.215 89.9069 53.2349C90.6026 57.4317 87.1827 61.4929 86.7899 61.9411L86.2219 62.5891L85.3475 62.6449C84.0011 63.476 83.1291 69.676 82.8847 81.0263C82.8446 82.8905 82.8081 84.379 82.7266 85.2148C82.5162 96.4236 78.5636 100.67 75.6058 102.875C70.4164 105.667 65.7608 107 61.5042 107ZM37.1927 88.5508C42.1535 88.5508 45.74 90.6337 48.474 95.1016C50.2399 98.0619 54.2667 103.002 61.5042 103.002C65.0554 103.002 69.0421 101.834 73.3522 99.5373C75.3711 98.0049 78.4225 94.626 78.6074 84.9901C78.6913 84.0616 78.7205 82.6706 78.7557 80.9407C79.0026 69.7699 79.5876 60.3694 84.0315 58.8583C84.8683 57.7301 86.121 55.5817 85.8303 53.8626C85.7379 53.3169 85.4593 52.4978 84.1337 51.7107C83.4685 51.2197 79.3857 47.7755 79.5949 36.7688C79.7932 26.4302 79.989 17.6288 79.989 17.6288C79.9622 17.2139 79.0829 3.99704 69.3449 3.99704C65.1807 3.99704 59.9 6.25831 53.6415 10.7262L7.56884 62.7888C7.59681 62.7888 1.7567 71.9563 5.24836 79.7031C7.64181 85.0234 13.9137 88.6447 23.8985 90.4733C25.8408 90.3246 27.8402 89.9252 29.7739 89.5447C32.2258 89.0549 34.7579 88.5508 37.1927 88.5508V88.5508ZM73.441 55.3642C69.8849 55.5568 66.7289 55.5568 66.7289 55.5568L66.7253 25.7073C66.7253 25.7073 65.7365 17.6669 57.8325 23.2178L16.1588 71.0599C16.1588 71.0599 13.3944 75.0771 16.1588 75.8368C16.1588 75.8368 18.9231 77.9471 21.2947 76.9865C23.2698 75.2685 32.1576 63.5925 54.8748 61.034C54.6777 72.5912 55.0718 88.8516 55.0718 88.8516C55.0718 88.8516 61.3923 95.3584 67.5133 88.8516C67.5133 82.1891 67.3163 60.9781 67.3163 58.4279C67.7529 58.5254 69.3802 58.0011 73.6368 57.478C73.638 57.478 76.9996 56.5091 73.441 55.3642V55.3642ZM55.8623 55.5568C55.8623 55.5568 46.3773 56.3236 42.6241 56.5019C38.871 56.685 41.6354 54.7923 41.6354 54.7923L55.8611 39.2904V55.5568H55.8623Z" fill="black"/>
<path d="M114.612 25.6797C118.689 25.6797 122.168 26.29 125.049 27.5107C127.93 28.7314 130.127 30.5381 131.641 32.9307C133.179 35.3232 133.948 38.2651 133.948 41.7563C133.948 44.4419 133.459 46.7979 132.483 48.8242C131.506 50.8506 130.115 52.5596 128.308 53.9512C126.526 55.3184 124.414 56.3804 121.973 57.1372L119.116 58.6021H102.234L102.161 51.0215H114.685C116.858 51.0215 118.665 50.6431 120.105 49.8862C121.57 49.1294 122.656 48.0918 123.364 46.7734C124.097 45.4551 124.463 43.9536 124.463 42.269C124.463 39.5347 123.669 37.3618 122.083 35.7505C120.52 34.1147 118.03 33.2969 114.612 33.2969H105.127V79H95.6787V25.6797H114.612ZM113.513 55.0864L123.438 55.0498L136.072 78.5239V79H125.964L113.513 55.0864ZM163.464 79H154.089V25.6797H163.464V79ZM180.09 33.2969H137.61V25.6797H180.09V33.2969ZM195.911 79H186.829V39.376H195.911V79ZM186.243 29.0122C186.243 27.6206 186.694 26.4731 187.598 25.5698C188.501 24.6421 189.758 24.1782 191.37 24.1782C192.981 24.1782 194.25 24.6421 195.178 25.5698C196.106 26.4731 196.57 27.6206 196.57 29.0122C196.57 30.3794 196.106 31.5269 195.178 32.4546C194.25 33.3579 192.981 33.8096 191.37 33.8096C189.758 33.8096 188.501 33.3579 187.598 32.4546C186.694 31.5269 186.243 30.3794 186.243 29.0122ZM247.18 61.5684C246.887 65.0596 245.898 68.1846 244.214 70.9434C242.554 73.6777 240.222 75.8262 237.219 77.3887C234.216 78.9512 230.542 79.7324 226.196 79.7324C221.802 79.7324 217.981 78.707 214.734 76.6562C211.511 74.5811 209.021 71.6514 207.263 67.8672C205.53 64.083 204.663 59.6152 204.663 54.4639V50.2524C204.663 45.0767 205.554 40.6089 207.336 36.8491C209.119 33.0649 211.646 30.1353 214.917 28.0601C218.213 25.9849 222.095 24.9473 226.562 24.9473C230.835 24.9473 234.436 25.7407 237.366 27.3276C240.32 28.8901 242.603 31.063 244.214 33.8462C245.85 36.605 246.838 39.7788 247.18 43.3677H237.769C237.402 39.9741 236.389 37.3374 234.729 35.4575C233.093 33.5776 230.371 32.6377 226.562 32.6377C223.804 32.6377 221.509 33.3213 219.678 34.6885C217.871 36.0312 216.504 38.0088 215.576 40.6211C214.648 43.209 214.185 46.395 214.185 50.1792V54.4639C214.185 58.0771 214.6 61.2021 215.43 63.8389C216.26 66.4512 217.554 68.4775 219.312 69.918C221.069 71.334 223.364 72.042 226.196 72.042C228.784 72.042 230.872 71.6392 232.458 70.8335C234.07 70.0278 235.291 68.856 236.121 67.3179C236.951 65.7554 237.488 63.8389 237.732 61.5684H247.18Z" fill="#0C0D36"/>
</svg>
